<?xml version="1.0" encoding="UTF-8" standalone="no"?>
<!-- Generator: Adobe Illustrator 14.0.0, SVG Export Plug-In . SVG Version: 6.00 Build 43363)  -->

<svg
   xmlns:dc="http://purl.org/dc/elements/1.1/"
   xmlns:cc="http://creativecommons.org/ns#"
   xmlns:rdf="http://www.w3.org/1999/02/22-rdf-syntax-ns#"
   xmlns:svg="http://www.w3.org/2000/svg"
   xmlns="http://www.w3.org/2000/svg"
   xmlns:xlink="http://www.w3.org/1999/xlink"
   xmlns:sodipodi="http://sodipodi.sourceforge.net/DTD/sodipodi-0.dtd"
   xmlns:inkscape="http://www.inkscape.org/namespaces/inkscape"
   version="1.1"
   id="Layer_1"
   x="0px"
   y="0px"
   width="422"
   height="422"
   viewBox="91.801 15.624 421.99999 421.99998"
   enable-background="new 91.801 15.624 611.306 568.512"
   xml:space="preserve"
   inkscape:version="0.48.0 r9654"
   sodipodi:docname="AGoban_logo.svg"><metadata
   id="metadata33"><rdf:RDF><cc:Work
       rdf:about=""><dc:format>image/svg+xml</dc:format><dc:type
         rdf:resource="http://purl.org/dc/dcmitype/StillImage" /><dc:title /></cc:Work></rdf:RDF></metadata><defs
   id="defs31"><linearGradient
   id="linearGradient3785"><stop
     style="stop-color:#000000;stop-opacity:1;"
     offset="0"
     id="stop3787" /><stop
     style="stop-color:#303030;stop-opacity:1;"
     offset="1"
     id="stop3789" /></linearGradient>
	
	
<radialGradient
   inkscape:collect="always"
   xlink:href="#linearGradient3785"
   id="radialGradient3816"
   gradientUnits="userSpaceOnUse"
   cx="-247.5"
   cy="421.01202"
   fx="-247.5"
   fy="421.01202"
   r="22.969728" /></defs><sodipodi:namedview
   pagecolor="#ffffff"
   bordercolor="#666666"
   borderopacity="1"
   objecttolerance="10"
   gridtolerance="10"
   guidetolerance="10"
   inkscape:pageopacity="0"
   inkscape:pageshadow="2"
   inkscape:window-width="1304"
   inkscape:window-height="790"
   id="namedview29"
   showgrid="true"
   inkscape:zoom="1.0078943"
   inkscape:cx="179.30601"
   inkscape:cy="136.81501"
   inkscape:window-x="0"
   inkscape:window-y="0"
   inkscape:window-maximized="0"
   inkscape:current-layer="Layer_1"
   fit-margin-top="0"
   fit-margin-left="0"
   fit-margin-right="0"
   fit-margin-bottom="0"><inkscape:grid
     type="xygrid"
     id="grid3026"
     empspacing="5"
     visible="true"
     enabled="true"
     snapvisiblegridlinesonly="true" /></sodipodi:namedview>
<g
   id="g21"
   transform="translate(-96.347,0.92898615)">
		<path
   style="fill:#94c147"
   inkscape:connector-curvature="0"
   id="path23"
   d="m 552.777,147.57 c -14.147,0 -25.622,11.652 -25.622,26.02 v 101.68 c 0,14.372 11.475,26.019 25.622,26.019 14.147,0 25.61,-11.646 25.61,-26.019 V 173.59 c 0.001,-14.368 -11.462,-26.02 -25.61,-26.02 z m -309.011,0 c -14.155,0 -25.618,11.652 -25.618,26.02 v 101.68 c 0,14.372 11.462,26.019 25.618,26.019 14.153,0 25.623,-11.646 25.623,-26.019 V 173.59 c -0.008,-14.368 -11.475,-26.02 -25.623,-26.02 z" />
		<path
   style="fill:#94c147"
   inkscape:connector-curvature="0"
   id="path25"
   d="m 284.799,148.364 v 185.768 c 0,11.035 8.948,19.98 19.983,19.98 h 22.815 v 56.567 c 0,14.37 11.47,26.016 25.623,26.016 14.148,0 25.623,-11.646 25.623,-26.016 v -56.567 h 39.878 v 56.567 c 0,14.37 11.463,26.016 25.61,26.016 14.147,0 25.622,-11.646 25.622,-26.016 v -56.567 h 22.828 c 11.022,0 19.971,-8.953 19.971,-19.98 V 148.364 H 284.799 l 0,0 z" />
		<path
   style="fill:#94c147"
   inkscape:connector-curvature="0"
   id="path27"
   d="m 452.302,52.105 21.057,-30.572 c 1.245,-1.819 0.939,-4.199 -0.695,-5.329 -1.637,-1.123 -3.968,-0.568 -5.225,1.251 l -21.875,31.75 c -14.404,-5.682 -30.418,-8.844 -47.293,-8.844 -16.87,0 -32.893,3.162 -47.297,8.844 l -21.875,-31.75 c -1.257,-1.819 -3.589,-2.375 -5.225,-1.251 -1.636,1.124 -1.946,3.509 -0.696,5.329 l 21.057,30.572 c -33.464,15.57 -56.951,45.166 -59.941,79.706 H 512.25 C 509.259,97.271 485.772,67.676 452.302,52.105 z M 350.187,100.28 c -6.965,0 -12.617,-5.646 -12.617,-12.616 0,-6.958 5.647,-12.61 12.617,-12.61 6.97,0 12.603,5.652 12.603,12.61 0,6.965 -5.64,12.616 -12.603,12.616 z m 97.744,0 c -6.97,0 -12.609,-5.646 -12.609,-12.616 0,-6.958 5.64,-12.61 12.609,-12.61 6.971,0 12.61,5.652 12.61,12.61 0,6.965 -5.64,12.616 -12.61,12.616 z" />
	</g>
<g
   id="g3805"
   transform="translate(449.653,-223.07102)"><rect
     y="385.63602"
     x="-206.69899"
     height="197"
     width="197"
     id="rect3022"
     style="opacity:0.98999999;fill:#dfbb4a;fill-opacity:1;fill-rule:evenodd;stroke:#000000;stroke-width:2.99999976;stroke-linecap:butt;stroke-linejoin:round;stroke-miterlimit:4;stroke-opacity:1;stroke-dasharray:none" /><path
     sodipodi:nodetypes="cc"
     inkscape:connector-curvature="0"
     id="path3796"
     d="m -207.69899,483.636 198.9795874,0"
     style="fill:none;stroke:#000000;stroke-width:1.5999999;stroke-linecap:butt;stroke-linejoin:miter;stroke-miterlimit:4;stroke-opacity:1;stroke-dasharray:none" /><use
     height="568.51202"
     width="611.30603"
     transform="translate(0,-49.999999)"
     id="use2990"
     xlink:href="#path3796"
     y="0"
     x="0" /><use
     height="568.51202"
     width="611.30603"
     transform="translate(0,49.999999)"
     id="use2992"
     xlink:href="#path3796"
     y="0"
     x="0" /><path
     style="fill:none;stroke:#000000;stroke-width:1.5999999;stroke-linecap:butt;stroke-linejoin:miter;stroke-miterlimit:4;stroke-opacity:1;stroke-dasharray:none"
     d="m -108.28229,384.14624 0.14618,198.97953"
     id="path3771"
     inkscape:connector-curvature="0"
     sodipodi:nodetypes="cc" /><use
     x="0"
     y="0"
     xlink:href="#path3796"
     id="use3773"
     transform="matrix(7.346849e-4,0.99999973,-0.99999973,7.346849e-4,425.50616,591.45312)"
     width="611.30603"
     height="568.51202" /><use
     x="0"
     y="0"
     xlink:href="#path3796"
     id="use3775"
     transform="matrix(7.346849e-4,0.99999973,-0.99999973,7.346849e-4,325.50618,591.52658)"
     width="611.30603"
     height="568.51202" /><path
     transform="matrix(1.0644444,0,0,1.0644444,105.29522,-14.703054)"
     d="m -225,421.01202 c 0,12.42641 -10.07359,22.5 -22.5,22.5 -12.42641,0 -22.5,-10.07359 -22.5,-22.5 0,-12.4264 10.07359,-22.5 22.5,-22.5 12.42641,0 22.5,10.0736 22.5,22.5 z"
     sodipodi:ry="22.5"
     sodipodi:rx="22.5"
     sodipodi:cy="421.01202"
     sodipodi:cx="-247.5"
     id="path3783"
     style="fill:url(#radialGradient3816);fill-opacity:1;fill-rule:evenodd;stroke:none"
     sodipodi:type="arc" /><path
     sodipodi:type="arc"
     style="fill:#ffffff;fill-opacity:1;fill-rule:evenodd;stroke:#000000;stroke-width:0.34196243;stroke-miterlimit:4;stroke-opacity:1;stroke-dasharray:none"
     id="path3793"
     sodipodi:cx="-247.5"
     sodipodi:cy="421.01202"
     sodipodi:rx="22.5"
     sodipodi:ry="22.5"
     d="m -225,421.01202 c 0,12.42641 -10.07359,22.5 -22.5,22.5 -12.42641,0 -22.5,-10.07359 -22.5,-22.5 0,-12.4264 10.07359,-22.5 22.5,-22.5 12.42641,0 22.5,10.0736 22.5,22.5 z"
     transform="matrix(1.0644444,0,0,1.0644444,155.29522,35.296945)" /></g></svg>